<svg xmlns="http://www.w3.org/2000/svg" xmlns:svg="http://www.w3.org/2000/svg" xmlns:xlink="http://www.w3.org/1999/xlink" id="svg39" width="128" height="128" version="1.1" viewBox="0 0 128 128"><defs id="defs2454"><marker style="overflow:visible" id="marker4962" orient="auto" refX="0" refY="0"><path style="fill-rule:evenodd;fill:context-stroke;stroke:context-stroke;stroke-width:1pt" id="path4843" d="M 5.77,0.0 L -2.88,5.0 L -2.88,-5.0 L 5.77,0.0 z" transform="scale(0.8)"/></marker><marker style="overflow:visible" id="TriangleOutL" orient="auto" refX="0" refY="0"><path style="fill:context-stroke;fill-rule:evenodd;stroke:context-stroke;stroke-width:1pt" id="path6947" d="M 5.77,0 -2.88,5 V -5 Z" transform="scale(0.8)"/></marker><linearGradient id="a" x1="0" x2="112" y1="-212" y2="-212" gradientTransform="matrix(1.017906,0,0,-1.0380684,6.4676664,-180.06455)" gradientUnits="userSpaceOnUse"><stop id="stop1560" offset="0" stop-color="#77767b"/><stop id="stop1562" offset=".036" stop-color="#c0bfbc"/><stop id="stop1564" offset=".071" stop-color="#9a9996"/><stop id="stop1566" offset=".929" stop-color="#9a9996"/><stop id="stop1568" offset=".964" stop-color="#c0bfbc"/><stop id="stop1570" offset="1" stop-color="#77767b"/></linearGradient><clipPath id="k"><path id="path1620" d="m 16,38 h 96 v 65 H 16 Z m 0,0"/></clipPath><clipPath id="k-3"><path id="path1620-6" d="m 16,38 h 96 v 65 H 16 Z m 0,0"/></clipPath><linearGradient id="linearGradient1653" x1="-31.094" x2="-32.359" y1="201.344" y2="284.543" gradientUnits="userSpaceOnUse"><stop id="stop1649" offset="0" stop-color="#f6f5f4" stop-opacity=".5" style="stop-color:#5e5c64;stop-opacity:1"/><stop id="stop1651" offset="1" stop-color="#f6f5f4" stop-opacity="0" style="stop-color:#241f31;stop-opacity:1"/></linearGradient><linearGradient id="a-3" x1="0" x2="112" y1="-212" y2="-212" gradientTransform="matrix(1,0,0,-1,93.984582,-196.98114)" gradientUnits="userSpaceOnUse"><stop id="stop862" offset="0" stop-color="#77767b"/><stop id="stop864" offset=".036" stop-color="#c0bfbc"/><stop id="stop866" offset=".071" stop-color="#9a9996"/><stop id="stop868" offset=".929" stop-color="#9a9996"/><stop id="stop870" offset=".964" stop-color="#c0bfbc"/><stop id="stop872" offset="1" stop-color="#77767b"/></linearGradient><clipPath id="e"><rect id="rect888" width="192" height="152" x="0" y="0"/></clipPath><mask id="c"><g id="g880" filter="url(#b)"><rect id="rect878" width="128" height="128" x="0" y="0" fill-opacity=".5"/></g></mask><filter id="b" width="1" height="1" x="0" y="0"><feColorMatrix id="feColorMatrix875" in="SourceGraphic" type="matrix" values="0 0 0 0 1 0 0 0 0 1 0 0 0 0 1 0 0 0 1 0"/></filter><linearGradient id="d" x1="-31.094" x2="-32.359" y1="201.344" y2="284.543" gradientTransform="matrix(-1,0,0,1,16,-156)" gradientUnits="userSpaceOnUse"><stop id="stop883" offset="0" stop-color="#f6f5f4" stop-opacity=".5"/><stop id="stop885" offset="1" stop-color="#f6f5f4" stop-opacity="0"/></linearGradient><linearGradient id="f" x1="66.711" x2="66.625" y1="70.109" y2="92.238" gradientTransform="matrix(-1,0,0,1,213.98458,-16.981135)" gradientUnits="userSpaceOnUse"><stop id="stop891" offset="0" stop-color="#33d17a"/><stop id="stop893" offset="1" stop-color="#8ff0a4" stop-opacity=".024"/></linearGradient><linearGradient id="g" x1="2" x2="112" y1="-300" y2="-300" gradientTransform="matrix(1.018182,0,0,-1,92.948222,-196.98114)" gradientUnits="userSpaceOnUse"><stop id="stop896" offset="0" stop-color="#3d3846"/><stop id="stop898" offset=".036" stop-color="#9a9996"/><stop id="stop900" offset=".071" stop-color="#5e5c64"/><stop id="stop902" offset=".929" stop-color="#5e5c64"/><stop id="stop904" offset=".964" stop-color="#9a9996"/><stop id="stop906" offset="1" stop-color="#3d3846"/></linearGradient><clipPath id="j"><rect id="rect919" width="192" height="152" x="0" y="0"/></clipPath><mask id="h"><g id="g911" filter="url(#b)"><rect id="rect909" width="128" height="128" x="0" y="0" fill-opacity=".5"/></g></mask><filter id="filter1393" width="1" height="1" x="0" y="0"><feColorMatrix id="feColorMatrix1391" in="SourceGraphic" type="matrix" values="0 0 0 0 1 0 0 0 0 1 0 0 0 0 1 0 0 0 1 0"/></filter><linearGradient id="i" x1="-32" x2="-32" y1="208" y2="276" gradientTransform="matrix(-1,0,0,1,16,-156)" gradientUnits="userSpaceOnUse"><stop id="stop914" offset="0" stop-color="#5e5c64"/><stop id="stop916" offset="1" stop-color="#241f31"/></linearGradient><clipPath id="k-6"><path id="path922" d="m 16,38 h 96 v 65 H 16 Z m 0,0"/></clipPath><clipPath id="m"><rect id="rect930" width="192" height="152" x="0" y="0"/></clipPath><mask id="l"><g id="g927" filter="url(#b)"><rect id="rect925" width="128" height="128" x="0" y="0" fill-opacity=".5"/></g></mask><filter id="filter1407" width="1" height="1" x="0" y="0"><feColorMatrix id="feColorMatrix1405" in="SourceGraphic" type="matrix" values="0 0 0 0 1 0 0 0 0 1 0 0 0 0 1 0 0 0 1 0"/></filter><linearGradient id="n" x1="64" x2="74" y1="236" y2="236" gradientTransform="rotate(-90,14.001723,94.017142)" gradientUnits="userSpaceOnUse"><stop id="stop933" offset="0" stop-color="#33d17a"/><stop id="stop935" offset="1" stop-color="#c8f8d2"/></linearGradient><linearGradient id="linearGradient1368" x1="0" x2="112" y1="-212" y2="-212" gradientTransform="matrix(1.017906,0,0,-1.0380684,6.8594755,-189.98385)" gradientUnits="userSpaceOnUse" xlink:href="#a"/></defs><g id="layer1" style="display:inline"><path id="path1636-9" fill="url(#a)" d="m 17.038535,108.97985 h 95.683175 c 4.49707,0 8.14324,-3.71839 8.14324,-8.30456 V 38.391202 c 0,-4.58616 -3.64617,-8.30455 -8.14324,-8.30455 H 17.038535 c -4.49708,0 -8.1432495,3.71839 -8.1432495,8.30455 v 62.284088 c 0,4.58617 3.6461695,8.30456 8.1432495,8.30456 z m 0,0" style="display:inline;fill:url(#linearGradient1368);stroke-width:1.02794"/><path id="path1638-7" fill="#deddda" d="M 112.48767,19.276132 H 16.804495 c -4.49708,0 -8.1432495,3.62843 -8.1432495,8.10363 v 68.880895 c 0,4.475203 3.6461695,8.103633 8.1432495,8.103633 h 95.683175 c 4.49706,0 8.14325,-3.62843 8.14325,-8.103633 V 27.379762 c 0,-4.4752 -3.64619,-8.10363 -8.14325,-8.10363 z m 0,0" style="display:inline;fill:#5e5c64;fill-opacity:1;stroke-width:1.01543"/><path id="path1640-3" fill="#241f31" d="M 113.48619,23.372192 H 15.767215 c -2.25054,0 -4.071629,1.81224 -4.071629,4.05182 v 68.880885 c 0,2.23958 1.82109,4.051823 4.071629,4.051823 h 97.718975 c 2.25053,0 4.07164,-1.812243 4.07164,-4.051823 V 27.424012 c 0,-2.23958 -1.82111,-4.05182 -4.07164,-4.05182 z m 0,0" style="display:inline;fill:#241c1c;stroke-width:1.01543"/><rect style="display:inline;fill:#023047;fill-opacity:1;stroke-width:1.01543" id="rect3272-6" width="96.579" height="68.442" x="16.357" y="27.599"/><rect style="display:inline;fill:#8ecae6;fill-opacity:.7;stroke-width:.504077" id="rect3586-2-1" width="12.605" height="12.329" x="20.741" y="83.794"/><rect style="display:inline;fill:#8ecae6;fill-opacity:1;stroke-width:.276022" id="rect3586-2-1-0" width="3.78" height="12.329" x="20.741" y="83.794"/><rect style="display:inline;fill:#219ebc;fill-opacity:.7;stroke-width:.604401" id="rect3586-29" width="12.605" height="17.725" x="38.698" y="78.26"/><rect style="display:inline;fill:#219ebc;fill-opacity:1;stroke-width:.330958" id="rect3586-29-6" width="3.78" height="17.725" x="38.698" y="78.26"/><rect style="display:inline;fill:#0080ff;fill-opacity:.698039;stroke-width:.84207" id="rect3586-7-3" width="12.605" height="34.407" x="57.145" y="61.578"/><rect style="display:inline;fill:#0080ff;fill-opacity:1;stroke-width:.461101" id="rect3586-7-3-3" width="3.78" height="34.407" x="57.145" y="61.578"/><rect style="display:inline;fill:#ffb703;fill-opacity:.7;stroke-width:.977842" id="rect3586-5-1" width="12.605" height="46.396" x="75.593" y="49.589"/><rect style="display:inline;fill:#ffb703;fill-opacity:1;stroke-width:.535447" id="rect3586-5-1-2" width="3.78" height="46.396" x="75.593" y="49.589"/><rect style="display:inline;fill:#fb8500;fill-opacity:.7;stroke-width:.734789" id="rect3586-56-9" width="12.605" height="26.198" x="94.324" y="69.787"/><rect style="display:inline;fill:#fb8500;fill-opacity:1;stroke-width:.402356" id="rect3586-56-9-0" width="3.78" height="26.198" x="94.324" y="69.787"/><path style="display:inline;opacity:.5;fill:#fff;fill-opacity:1;fill-rule:evenodd;stroke:#fff;stroke-width:2;stroke-linecap:butt;stroke-linejoin:miter;stroke-miterlimit:4;stroke-dasharray:none;stroke-opacity:1" id="path23337-4" d="m 26.344835,73.265942 18.46455,-16.09694"/><circle style="display:inline;fill:#ff5f00;fill-opacity:1;stroke-width:.496098" id="path763-2-7" cx="27.043" cy="73.266" r="5.633"/><path style="display:inline;opacity:.5;fill:none;fill-rule:evenodd;stroke:#fff;stroke-width:2;stroke-linecap:butt;stroke-linejoin:miter;stroke-miterlimit:4;stroke-dasharray:none;stroke-opacity:1" id="path23339-8" d="m 44.809385,57.169002 18.95627,-6.2211"/><circle style="display:inline;fill:green;stroke-width:.496098" id="path763-6-9-4" cx="45" cy="57.169" r="5.633"/><path style="display:inline;opacity:.5;fill:none;fill-rule:evenodd;stroke:#fff;stroke-width:2;stroke-linecap:butt;stroke-linejoin:miter;stroke-miterlimit:4;stroke-dasharray:none;stroke-opacity:1" id="path23341-5" d="M 63.765655,50.947902 81.310946,40.862132"/><circle style="display:inline;fill:#00d0ff;stroke-width:.496098;fill-opacity:1" id="path763-6-0" cx="63.448" cy="50.948" r="5.633"/><path style="display:inline;opacity:.5;fill:none;fill-rule:evenodd;stroke:#fff;stroke-width:2;stroke-linecap:butt;stroke-linejoin:miter;stroke-miterlimit:4;stroke-dasharray:none;stroke-opacity:1" id="path23343-3" d="m 81.310946,40.862132 15.39619,8.93698"/><circle style="display:inline;fill:#a00;stroke-width:.496098" id="path763-3-6" cx="100.626" cy="52.627" r="5.633"/><circle style="display:inline;fill:#fc0;stroke-width:.496098" id="path763-1" cx="81.895" cy="40.862" r="5.633"/></g><metadata id="metadata473"/></svg>