<?xml version="1.0" encoding="UTF-8"?>
<svg height="128px"
     viewBox="0 0 128 128"
     width="128px"
     xmlns="http://www.w3.org/2000/svg"
     xmlns:xlink="http://www.w3.org/1999/xlink">
  <defs
     id="defs2454">
    <linearGradient
       inkscape:collect="always"
       id="linearGradient3666">
      <stop
         style="stop-color:#676c53;stop-opacity:1;"
         offset="0"
         id="stop3662" />
      <stop
         style="stop-color:#676c53;stop-opacity:0;"
         offset="1"
         id="stop3664" />
    </linearGradient>
    <marker
       style="overflow:visible"
       id="TriangleOutL"
       refX="0"
       refY="0"
       orient="auto"
       inkscape:stockid="TriangleOutL"
       inkscape:isstock="true">
      <path
         transform="scale(0.8)"
         style="fill:context-stroke;fill-rule:evenodd;stroke:context-stroke;stroke-width:1pt"
         d="M 5.77,0 -2.88,5 V -5 Z"
         id="path6947" />
    </marker>
    <inkscape:path-effect
       effect="spiro"
       id="path-effect3322"
       is_visible="true"
       lpeversion="1" />
    <inkscape:path-effect
       effect="spiro"
       id="path-effect3318"
       is_visible="true"
       lpeversion="1" />
    <inkscape:path-effect
       effect="spiro"
       id="path-effect3314"
       is_visible="true"
       lpeversion="1" />
    <inkscape:path-effect
       effect="spiro"
       id="path-effect3310"
       is_visible="true"
       lpeversion="1" />
    <inkscape:path-effect
       effect="spiro"
       id="path-effect3306"
       is_visible="true"
       lpeversion="1" />
    <linearGradient
       id="a"
       gradientTransform="matrix(0.26458333,0,0,-0.26458333,2.0921095,-47.804353)"
       gradientUnits="userSpaceOnUse"
       x1="-7.0000001e-06"
       x2="111.99999"
       y1="-212.00002"
       y2="-212.00002">
      <stop
         offset="0"
         stop-color="#77767b"
         id="stop1560" />
      <stop
         offset="0.0357143"
         stop-color="#c0bfbc"
         id="stop1562" />
      <stop
         offset="0.0713653"
         stop-color="#9a9996"
         id="stop1564" />
      <stop
         offset="0.928571"
         stop-color="#9a9996"
         id="stop1566" />
      <stop
         offset="0.964286"
         stop-color="#c0bfbc"
         id="stop1568" />
      <stop
         offset="1"
         stop-color="#77767b"
         id="stop1570" />
    </linearGradient>
    <clipPath
       id="k">
      <path
         d="m 16,38 h 96 v 65 H 16 Z m 0,0"
         id="path1620" />
    </clipPath>
    <clipPath
       id="k-3">
      <path
         d="m 16,38 h 96 v 65 H 16 Z m 0,0"
         id="path1620-6" />
    </clipPath>
    <linearGradient
       id="linearGradient1653"
       gradientUnits="userSpaceOnUse"
       x1="-31.093782"
       x2="-32.359253"
       y1="201.34406"
       y2="284.54291">
      <stop
         id="stop1649"
         offset="0"
         stop-color="#f6f5f4"
         stop-opacity=".5"
         style="stop-color:#5e5c64;stop-opacity:1" />
      <stop
         id="stop1651"
         offset="1"
         stop-color="#f6f5f4"
         stop-opacity="0"
         style="stop-color:#241f31;stop-opacity:1" />
    </linearGradient>
    <linearGradient
       inkscape:collect="always"
       xlink:href="#linearGradient3666"
       id="linearGradient3668"
       x1="-18.511702"
       y1="5.2667313"
       x2="-18.511702"
       y2="43.694782"
       gradientUnits="userSpaceOnUse"
       gradientTransform="translate(35.664011,2.286868)" />
  </defs>
  <g
     inkscape:label="Camada 1"
     inkscape:groupmode="layer"
     id="layer1"
     style="display:inline">
    <path
       d="M 4.7379425,28.395646 H 29.608775 c 1.168921,0 2.116667,-0.947745 2.116667,-2.116667 V 10.40398 c 0,-1.168922 -0.947746,-2.116667 -2.116667,-2.116667 H 4.7379425 c -1.168921,0 -2.116666,0.947745 -2.116666,2.116667 v 15.874999 c 0,1.168922 0.947745,2.116667 2.116666,2.116667 z m 0,0"
       fill="url(#a)"
       id="path1636"
       style="fill:url(#a);stroke-width:0.264583" />
    <path
       d="M 29.600889,5.410075 H 4.7300565 c -1.168921,0 -2.116667,0.947746 -2.116667,2.116667 v 17.991666 c 0,1.168922 0.947746,2.116667 2.116667,2.116667 H 29.600889 c 1.168918,0 2.116666,-0.947745 2.116666,-2.116667 V 7.526742 c 0,-1.168921 -0.947748,-2.116667 -2.116666,-2.116667 z m 0,0"
       fill="#deddda"
       id="path1638"
       style="fill:#5e5c64;fill-opacity:1;stroke-width:0.264583" />
    <path
       d="M 29.807488,6.533498 H 4.4074895 c -0.584978,0 -1.058334,0.473356 -1.058334,1.058334 v 17.991666 c 0,0.584977 0.473356,1.058333 1.058334,1.058333 H 29.807488 c 0.584978,0 1.058334,-0.473356 1.058334,-1.058333 V 7.591832 c 0,-0.584978 -0.473356,-1.058334 -1.058334,-1.058334 z m 0,0"
       fill="#241f31"
       id="path1640"
       style="fill:#454837;stroke-width:0.264583" />
    <rect
       style="fill:url(#linearGradient3668);fill-opacity:1;stroke-width:0.264583"
       id="rect3272"
       width="25.103598"
       height="17.876917"
       x="4.5607281"
       y="7.6376486" />
    <rect
       style="fill:#c6e9af;stroke-width:0.131344"
       id="rect3586-2"
       width="3.276397"
       height="3.2203884"
       x="5.7078171"
       y="22.275984" />
    <rect
       style="fill:#c6e9af;stroke-width:0.207693"
       id="rect3586"
       width="3.276397"
       height="8.0525579"
       x="10.367831"
       y="17.447371" />
    <rect
       style="fill:#c6e9af;stroke-width:0.174947"
       id="rect3586-7"
       width="3.276397"
       height="5.7135305"
       x="15.16285"
       y="19.786398" />
    <rect
       style="fill:#c6e9af;stroke-width:0.25479"
       id="rect3586-5"
       width="3.276397"
       height="12.118625"
       x="19.957872"
       y="13.381303" />
    <rect
       style="fill:#c6e9af;stroke-width:0.241543"
       id="rect3586-56"
       width="3.276397"
       height="10.891192"
       x="24.752892"
       y="14.608735" />
    <path
       sodipodi:type="star"
       style="fill:#00aa00"
       id="path2909"
       inkscape:flatsided="false"
       sodipodi:sides="5"
       sodipodi:cx="-75.12764"
       sodipodi:cy="54.940228"
       sodipodi:r1="11.079512"
       sodipodi:r2="5.5397563"
       sodipodi:arg1="0.92813977"
       sodipodi:arg2="1.5564583"
       inkscape:rounded="0"
       inkscape:randomized="0"
       d="m -68.487421,63.809448 -6.560792,-3.330034 -6.462616,3.516777 1.139654,-7.268722 -5.341712,-5.059569 7.265138,-1.162283 3.161256,-6.643762 3.350448,6.55039 7.295476,0.953499 -5.194447,5.210647 z"
       transform="matrix(0.26458333,0,0,0.26458333,27.692821,-3.5064458)"
       inkscape:transform-center-x="0.012987684"
       inkscape:transform-center-y="-0.26754813" />
  </g>
</svg>
